<svg width="18" height="19" viewBox="0 0 18 19" fill="none" xmlns="http://www.w3.org/2000/svg">
<g clip-path="url(#clip0_55_387)">
<path d="M9.00002 0.404755C6.79856 0.411226 4.67536 1.2221 3.03003 2.68475L2.03028 1.685C1.92539 1.58015 1.79176 1.50874 1.6463 1.47982C1.50083 1.45089 1.35006 1.46574 1.21303 1.5225C1.07601 1.57925 0.958887 1.67535 0.876474 1.79866C0.794061 1.92197 0.750057 2.06694 0.750025 2.21525V5.65475C0.750025 5.85367 0.829043 6.04443 0.969695 6.18508C1.11035 6.32574 1.30111 6.40475 1.50003 6.40475H4.93953C5.08784 6.40472 5.23281 6.36072 5.35612 6.27831C5.47943 6.19589 5.57553 6.07877 5.63228 5.94175C5.68904 5.80472 5.70389 5.65395 5.67496 5.50848C5.64604 5.36302 5.57463 5.22939 5.46978 5.12451L4.61853 4.27325C5.6119 3.42466 6.83019 2.88258 8.1256 2.71279C9.42101 2.54301 10.7379 2.7528 11.9164 3.31673C13.0949 3.88065 14.0844 4.77448 14.7649 5.88975C15.4454 7.00502 15.7876 8.29381 15.75 9.59975C15.7018 11.2872 15.023 12.8952 13.8476 14.1069C12.6722 15.3185 11.0855 16.0457 9.4003 16.1451C7.71515 16.2445 6.05391 15.7089 4.74418 14.6439C3.43446 13.5789 2.57134 12.0618 2.32503 10.3918C2.28985 10.1202 2.1575 9.87061 1.95246 9.68915C1.74742 9.50769 1.48358 9.40666 1.20978 9.40475C1.0509 9.4027 0.893413 9.43458 0.74784 9.49825C0.602266 9.56193 0.471955 9.65593 0.365612 9.77399C0.259269 9.89204 0.179343 10.0314 0.131172 10.1828C0.0830012 10.3343 0.0676948 10.4942 0.0862755 10.652C0.398434 12.8615 1.51907 14.8766 3.23132 16.3075C4.94358 17.7384 7.12573 18.4833 9.35553 18.398C11.6113 18.2893 13.7458 17.3444 15.3427 15.7474C16.9397 14.1505 17.8846 12.0161 17.9933 9.76025C18.0398 8.54969 17.8416 7.34219 17.4108 6.20995C16.9799 5.07772 16.3251 4.04401 15.4855 3.17064C14.646 2.29727 13.6389 1.60218 12.5246 1.12694C11.4102 0.651707 10.2115 0.406081 9.00002 0.404755Z" fill="white"/>
<path d="M8.625 5.65475C8.32663 5.65475 8.04048 5.77328 7.8295 5.98426C7.61853 6.19524 7.5 6.48139 7.5 6.77975V9.99951C7.50008 10.3973 7.65818 10.7788 7.9395 11.06L9.28425 12.4048C9.49643 12.6097 9.78061 12.7231 10.0756 12.7205C10.3705 12.7179 10.6527 12.5996 10.8613 12.3911C11.0699 12.1825 11.1882 11.9003 11.1908 11.6053C11.1933 11.3104 11.0799 11.0262 10.875 10.814L9.75 9.689V6.77975C9.75 6.48139 9.63147 6.19524 9.4205 5.98426C9.20952 5.77328 8.92337 5.65475 8.625 5.65475Z" fill="white"/>
</g>
<defs>
<clipPath id="clip0_55_387">
<rect width="18" height="18" fill="white" transform="translate(0 0.404755)"/>
</clipPath>
</defs>
</svg>
