<svg width="16" height="19" viewBox="0 0 16 19" fill="none" xmlns="http://www.w3.org/2000/svg">
<path d="M9.5 5.65475V0.749755C10.1938 1.01176 10.824 1.41824 11.3488 1.94225L13.9618 4.55675C14.4864 5.08091 14.8932 5.71093 15.155 6.40475H10.25C10.0511 6.40475 9.86032 6.32574 9.71967 6.18508C9.57902 6.04443 9.5 5.85367 9.5 5.65475ZM15.5 8.2685V14.6548C15.4988 15.649 15.1033 16.6021 14.4003 17.3051C13.6973 18.0081 12.7442 18.4036 11.75 18.4048H4.25C3.2558 18.4036 2.30267 18.0081 1.59967 17.3051C0.896662 16.6021 0.501191 15.649 0.5 14.6548V4.15475C0.501191 3.16056 0.896662 2.20742 1.59967 1.50442C2.30267 0.801416 3.2558 0.405946 4.25 0.404755L7.63625 0.404755C7.7585 0.404755 7.87925 0.414505 8 0.422755V5.65475C8 6.25149 8.23705 6.82379 8.65901 7.24575C9.08097 7.6677 9.65326 7.90475 10.25 7.90475H15.482C15.4903 8.0255 15.5 8.14625 15.5 8.2685ZM9.5 14.6548C9.5 14.4558 9.42098 14.2651 9.28033 14.1244C9.13968 13.9838 8.94891 13.9048 8.75 13.9048H5C4.80109 13.9048 4.61032 13.9838 4.46967 14.1244C4.32902 14.2651 4.25 14.4558 4.25 14.6548C4.25 14.8537 4.32902 15.0444 4.46967 15.1851C4.61032 15.3257 4.80109 15.4048 5 15.4048H8.75C8.94891 15.4048 9.13968 15.3257 9.28033 15.1851C9.42098 15.0444 9.5 14.8537 9.5 14.6548ZM11.75 11.6548C11.75 11.4558 11.671 11.2651 11.5303 11.1244C11.3897 10.9838 11.1989 10.9048 11 10.9048H5C4.80109 10.9048 4.61032 10.9838 4.46967 11.1244C4.32902 11.2651 4.25 11.4558 4.25 11.6548C4.25 11.8537 4.32902 12.0444 4.46967 12.1851C4.61032 12.3257 4.80109 12.4048 5 12.4048H11C11.1989 12.4048 11.3897 12.3257 11.5303 12.1851C11.671 12.0444 11.75 11.8537 11.75 11.6548Z" fill="white"/>
</svg>
