<svg width="45" height="44" viewBox="0 0 45 44" fill="none" xmlns="http://www.w3.org/2000/svg">
<path d="M29.8333 19.25C29.8333 20.768 28.6013 22 27.0833 22C25.5653 22 24.3333 20.768 24.3333 19.25C24.3333 17.732 25.5653 16.5 27.0833 16.5C28.6013 16.5 29.8333 17.732 29.8333 19.25ZM17.9167 16.5C16.3987 16.5 15.1667 17.732 15.1667 19.25C15.1667 20.768 16.3987 22 17.9167 22C19.4347 22 20.6667 20.768 20.6667 19.25C20.6667 17.732 19.4347 16.5 17.9167 16.5ZM44.5 16.5V20.1667H40.8333V36.6667H31.938L24.8852 42.4967C24.2215 43.087 23.3727 43.3858 22.5165 43.3858C21.6438 43.3858 20.7638 43.076 20.0635 42.4527L13.1922 36.6667H4.16667V20.1667H0.5V16.5H4.16667V5.5C4.16667 2.46767 6.63433 0 9.66667 0H35.3333C38.3657 0 40.8333 2.46767 40.8333 5.5V16.5H44.5ZM33.5 14.6667C33.5 12.6408 31.8592 11 29.8333 11H15.1667C13.1408 11 11.5 12.6408 11.5 14.6667V23.8333C11.5 25.8592 13.1408 27.5 15.1667 27.5H29.8333C31.8592 27.5 33.5 25.8592 33.5 23.8333V14.6667Z" fill="#FFEDB6"/>
</svg>
