<svg width="43" height="42" viewBox="0 0 43 42" fill="none" xmlns="http://www.w3.org/2000/svg">
<path fill-rule="evenodd" clip-rule="evenodd" d="M21.4988 0C33.0705 0 42.4512 9.3807 42.4512 20.9524C42.4512 32.5241 33.0705 41.9048 21.4988 41.9048C9.92715 41.9048 0.546448 32.5241 0.546448 20.9524C0.546448 9.3807 9.92715 0 21.4988 0ZM20.7415 1.56786C18.3513 1.90425 16.0752 3.82494 14.3084 7.03728C13.7959 7.96906 13.3335 8.99848 12.9305 10.11C15.3329 9.50627 17.9719 9.15035 20.7415 9.09529V1.56786ZM11.1597 10.6132C11.6607 9.04051 12.2738 7.59356 12.9813 6.30735C13.8571 4.7149 14.8965 3.33976 16.0677 2.28357C9.69928 4.1331 4.67954 9.15283 2.83002 15.5212C3.8862 14.3501 5.26136 13.3106 6.8538 12.4348C8.14001 11.7274 9.58695 11.1143 11.1597 10.6132ZM10.6564 12.384C10.0527 14.7864 9.6968 17.4255 9.64174 20.1951H2.1143C2.4507 17.8047 4.37139 15.5286 7.58373 13.7619C8.51551 13.2494 9.54493 12.787 10.6564 12.384ZM11.1567 20.1951C11.2193 17.1726 11.6543 14.335 12.3743 11.8278C14.8814 11.1079 17.7191 10.6727 20.7415 10.6102V13.8818C19.6139 16.7684 17.3142 19.0679 14.4275 20.1951H11.1567ZM9.64174 21.7097H2.1143C2.4507 24.1001 4.37139 26.376 7.58373 28.1428C8.51551 28.6553 9.54493 29.1177 10.6564 29.5208C10.0527 27.1184 9.6968 24.4793 9.64174 21.7097ZM12.3743 30.0769C11.6543 27.5698 11.2193 24.7322 11.1567 21.7097H14.4275C17.3142 22.8368 19.6141 25.1364 20.7415 28.023V31.2946C17.7191 31.232 14.8814 30.7969 12.3743 30.0769ZM11.1597 31.2915C9.58695 30.7905 8.14001 30.1774 6.8538 29.4699C5.26136 28.5941 3.8862 27.5547 2.83002 26.3836C4.67954 32.7519 9.69928 37.7717 16.0677 39.6212C14.8965 38.565 13.8571 37.1898 12.9813 35.5974C12.2738 34.3112 11.6607 32.8642 11.1597 31.2915ZM20.7415 40.3369C18.3513 40.0005 16.0752 38.0798 14.3084 34.8675C13.7959 33.9357 13.3335 32.9062 12.9305 31.7948C15.3329 32.3985 17.9719 32.7544 20.7415 32.8094V40.3369ZM26.93 39.6212C28.1011 38.565 29.1406 37.1898 30.0165 35.5974C30.7238 34.3112 31.3369 32.8642 31.838 31.2915C33.4107 30.7905 34.8576 30.1774 36.1439 29.4699C37.7363 28.5941 39.1115 27.5547 40.1676 26.3836C38.3181 32.7519 33.2984 37.7717 26.93 39.6212ZM30.0672 31.7948C29.6642 32.9062 29.2018 33.9357 28.6893 34.8675C26.9226 38.0798 24.6465 40.0005 22.2561 40.3369V32.8094C25.0257 32.7544 27.6648 32.3985 30.0672 31.7948ZM32.3413 29.5208C33.4527 29.1177 34.4822 28.6553 35.4139 28.1428C38.6262 26.376 40.547 24.1001 40.8833 21.7097H33.3559C33.3009 24.4793 32.9449 27.1184 32.3413 29.5208ZM31.841 21.7097C31.7785 24.7322 31.3433 27.5698 30.6234 30.0769C28.1162 30.7969 25.2786 31.232 22.2561 31.2946V28.0254C23.3833 25.1377 25.6835 22.8372 28.5711 21.7097H31.841ZM33.3559 20.1951H40.8833C40.547 17.8047 38.6262 15.5286 35.4139 13.7619C34.4822 13.2494 33.4527 12.787 32.3413 12.384C32.9449 14.7864 33.3009 17.4255 33.3559 20.1951ZM30.6234 11.8278C31.3433 14.335 31.7785 17.1726 31.841 20.1951H28.5711C25.6835 19.0676 23.3833 16.767 22.2561 13.8794V10.6102C25.2786 10.6727 28.1162 11.1079 30.6234 11.8278ZM31.838 10.6132C33.4107 11.1143 34.8576 11.7274 36.1439 12.4348C37.7363 13.3106 39.1115 14.3501 40.1676 15.5212C38.3181 9.15283 33.2984 4.1331 26.93 2.28357C28.1011 3.33976 29.1406 4.7149 30.0165 6.30735C30.7238 7.59356 31.3369 9.04051 31.838 10.6132ZM22.2561 1.56786C24.6465 1.90425 26.9226 3.82494 28.6893 7.03728C29.2018 7.96907 29.6642 8.99848 30.0672 10.11C27.6648 9.50627 25.0257 9.15035 22.2561 9.09529V1.56786Z" fill="#003386"/>
</svg>
