<svg width="18" height="19" viewBox="0 0 18 19" fill="none" xmlns="http://www.w3.org/2000/svg">
<path d="M14.5605 4.15475H11.25V0.844255L14.5605 4.15475ZM10.5 13.9048V11.6548H4.5V13.9048H10.5ZM12.0173 18.4048H0V2.65475C0 1.412 1.00725 0.404755 2.25 0.404755H9.75V5.65475H15V7.90475H12.75V8.9675C12.156 9.22775 11.649 9.64325 11.2635 10.1548H3V15.4048H10.5C10.5 16.6348 11.1008 17.7208 12.0173 18.4048ZM3 5.65475H6.75V4.15475H3V5.65475ZM3 8.65475H6.75V7.15475H3V8.65475ZM16.2638 13.355L13.983 12.9748C13.7032 12.9283 13.5 12.6883 13.5 12.4048C13.5 11.9915 13.836 11.6548 14.25 11.6548H15.75C16.164 11.6548 16.5 11.9915 16.5 12.4048H18C18 11.1643 16.9905 10.1548 15.75 10.1548V9.40475H14.25V10.1548C13.0095 10.1548 12 11.1643 12 12.4048C12 13.4248 12.7305 14.2873 13.7362 14.4545L16.017 14.8348C16.2968 14.8813 16.5 15.1213 16.5 15.4048C16.5 15.818 16.164 16.1548 15.75 16.1548H14.25C13.836 16.1548 13.5 15.818 13.5 15.4048H12C12 16.6453 13.0095 17.6548 14.25 17.6548V18.4048H15.75V17.6548C16.9905 17.6548 18 16.6453 18 15.4048C18 14.3848 17.2695 13.5223 16.2638 13.355Z" fill="#A6A6A6"/>
</svg>
