<svg width="18" height="19" viewBox="0 0 18 19" fill="none" xmlns="http://www.w3.org/2000/svg">
<g clip-path="url(#clip0_3_246)">
<path d="M8.625 12.9048C8.32663 12.9048 8.04048 13.0233 7.8295 13.2343C7.61853 13.4453 7.5 13.7314 7.5 14.0298V14.6298C7.5 15.1668 7.28665 15.6819 6.90689 16.0617C6.52713 16.4414 6.01206 16.6548 5.475 16.6548H4.275C3.73794 16.6548 3.22287 16.4414 2.84311 16.0617C2.46335 15.6819 2.25 15.1668 2.25 14.6298V5.17978C2.25 4.64272 2.46335 4.12766 2.84311 3.74789C3.22287 3.36813 3.73794 3.15479 4.275 3.15479H5.475C6.01206 3.15479 6.52713 3.36813 6.90689 3.74789C7.28665 4.12766 7.5 4.64272 7.5 5.17978V5.77979C7.5 6.07815 7.61853 6.3643 7.8295 6.57528C8.04048 6.78626 8.32663 6.90479 8.625 6.90479C8.92337 6.90479 9.20952 6.78626 9.42049 6.57528C9.63147 6.3643 9.75 6.07815 9.75 5.77979V5.17978C9.74881 4.04635 9.29803 2.95968 8.49656 2.15822C7.69511 1.35676 6.60843 0.905976 5.475 0.904785L4.275 0.904785C3.14156 0.905976 2.05489 1.35676 1.25343 2.15822C0.451974 2.95968 0.00119121 4.04635 0 5.17978L0 14.6298C0.00119121 15.7632 0.451974 16.8499 1.25343 17.6514C2.05489 18.4528 3.14156 18.9036 4.275 18.9048H5.475C6.60843 18.9036 7.69511 18.4528 8.49656 17.6514C9.29803 16.8499 9.74881 15.7632 9.75 14.6298V14.0298C9.75 13.7314 9.63147 13.4453 9.42049 13.2343C9.20952 13.0233 8.92337 12.9048 8.625 12.9048Z" fill="#ED302B"/>
<path d="M16.9208 8.04851L13.4813 4.60901C13.3768 4.50456 13.2527 4.42171 13.1162 4.3652C12.9797 4.30869 12.8334 4.27963 12.6856 4.27966C12.5379 4.2797 12.3916 4.30883 12.2551 4.36541C12.1186 4.42198 11.9946 4.50488 11.8901 4.60938C11.6792 4.82043 11.5607 5.10663 11.5608 5.40502C11.5608 5.55277 11.59 5.69907 11.6465 5.83556C11.7031 5.97205 11.786 6.09606 11.8905 6.20051L14.4488 8.75876L5.25 8.77976C4.95163 8.77976 4.66548 8.89828 4.4545 9.10926C4.24353 9.32024 4.125 9.60639 4.125 9.90476C4.125 10.2031 4.24353 10.4893 4.4545 10.7003C4.66548 10.9112 4.95163 11.0298 5.25 11.0298L14.4885 11.0088L11.8883 13.609C11.6772 13.82 11.5586 14.1061 11.5585 14.4045C11.5585 14.7029 11.6769 14.9891 11.8879 15.2001C12.0988 15.4112 12.385 15.5298 12.6834 15.5299C12.9818 15.5299 13.268 15.4115 13.479 15.2005L16.9185 11.761C17.4102 11.2685 17.6866 10.6012 17.687 9.90522C17.6874 9.20929 17.4119 8.54158 16.9208 8.04851Z" fill="#ED302B"/>
</g>
<defs>
<clipPath id="clip0_3_246">
<rect width="18" height="18" fill="white" transform="translate(0 0.904785)"/>
</clipPath>
</defs>
</svg>
