<svg width="18" height="19" viewBox="0 0 18 19" fill="none" xmlns="http://www.w3.org/2000/svg">
<g clip-path="url(#clip0_11_17)">
<path d="M12.0322 11.4048H5.96775C4.98211 11.4059 4.03717 11.798 3.34022 12.495C2.64326 13.1919 2.25119 14.1369 2.25 15.1225V18.9048H15.75V15.1225C15.7488 14.1369 15.3567 13.1919 14.6598 12.495C13.9628 11.798 13.0179 11.4059 12.0322 11.4048Z" fill="#A6A6A6"/>
<path d="M9 9.90475C11.4853 9.90475 13.5 7.89004 13.5 5.40475C13.5 2.91947 11.4853 0.904755 9 0.904755C6.51472 0.904755 4.5 2.91947 4.5 5.40475C4.5 7.89004 6.51472 9.90475 9 9.90475Z" fill="#A6A6A6"/>
</g>
<defs>
<clipPath id="clip0_11_17">
<rect width="18" height="18" fill="white" transform="translate(0 0.904755)"/>
</clipPath>
</defs>
</svg>
